<svg width="138" height="24" viewBox="0 0 138 24" fill="none" xmlns="http://www.w3.org/2000/svg">
<path d="M14.9766 17.2773C14.1953 17.9492 13.3203 18.4648 12.3516 18.8242C11.3828 19.1836 10.3789 19.3633 9.33984 19.3633C8.54297 19.3633 7.77344 19.2578 7.03125 19.0469C6.29688 18.8438 5.60547 18.5547 4.95703 18.1797C4.31641 17.7969 3.73047 17.3398 3.19922 16.8086C2.66797 16.2773 2.21094 15.6914 1.82812 15.0508C1.45312 14.4023 1.16016 13.7109 0.949219 12.9766C0.746094 12.2344 0.644531 11.4648 0.644531 10.668C0.644531 9.87109 0.746094 9.10156 0.949219 8.35938C1.16016 7.61719 1.45312 6.92578 1.82812 6.28516C2.21094 5.63672 2.66797 5.04688 3.19922 4.51562C3.73047 3.98438 4.31641 3.53125 4.95703 3.15625C5.60547 2.77344 6.29688 2.48047 7.03125 2.27734C7.77344 2.06641 8.54297 1.96094 9.33984 1.96094C10.3789 1.96094 11.3828 2.14062 12.3516 2.5C13.3203 2.85156 14.1953 3.36719 14.9766 4.04688L13.1953 6.97656C12.7031 6.44531 12.1211 6.03906 11.4492 5.75781C10.7773 5.46875 10.0742 5.32422 9.33984 5.32422C8.59766 5.32422 7.90234 5.46484 7.25391 5.74609C6.60547 6.02734 6.03906 6.41016 5.55469 6.89453C5.07031 7.37109 4.6875 7.9375 4.40625 8.59375C4.125 9.24219 3.98438 9.93359 3.98438 10.668C3.98438 11.4023 4.125 12.0938 4.40625 12.7422C4.6875 13.3828 5.07031 13.9453 5.55469 14.4297C6.03906 14.9141 6.60547 15.2969 7.25391 15.5781C7.90234 15.8594 8.59766 16 9.33984 16C10.0742 16 10.7773 15.8594 11.4492 15.5781C12.1211 15.2891 12.7031 14.8789 13.1953 14.3477L14.9766 17.2773ZM28.2773 12.6133C28.2773 13.5508 28.1094 14.4258 27.7734 15.2383C27.4375 16.043 26.9805 16.7422 26.4023 17.3359C25.8242 17.9219 25.1445 18.3867 24.3633 18.7305C23.5898 19.0664 22.7578 19.2344 21.8672 19.2344C20.9844 19.2344 20.1523 19.0664 19.3711 18.7305C18.5977 18.3867 17.918 17.9219 17.332 17.3359C16.7539 16.7422 16.2969 16.043 15.9609 15.2383C15.625 14.4258 15.457 13.5508 15.457 12.6133C15.457 11.6602 15.625 10.7773 15.9609 9.96484C16.2969 9.15234 16.7539 8.45312 17.332 7.86719C17.918 7.27344 18.5977 6.80859 19.3711 6.47266C20.1523 6.13672 20.9844 5.96875 21.8672 5.96875C22.7578 5.96875 23.5898 6.12891 24.3633 6.44922C25.1445 6.76172 25.8242 7.21094 26.4023 7.79688C26.9805 8.375 27.4375 9.07422 27.7734 9.89453C28.1094 10.707 28.2773 11.6133 28.2773 12.6133ZM25.0547 12.6133C25.0547 12.0977 24.9688 11.6328 24.7969 11.2188C24.6328 10.7969 24.4062 10.4375 24.1172 10.1406C23.8281 9.83594 23.4883 9.60547 23.0977 9.44922C22.7148 9.28516 22.3047 9.20312 21.8672 9.20312C21.4297 9.20312 21.0156 9.28516 20.625 9.44922C20.2422 9.60547 19.9062 9.83594 19.6172 10.1406C19.3359 10.4375 19.1133 10.7969 18.9492 11.2188C18.7852 11.6328 18.7031 12.0977 18.7031 12.6133C18.7031 13.0977 18.7852 13.5469 18.9492 13.9609C19.1133 14.375 19.3359 14.7344 19.6172 15.0391C19.9062 15.3438 20.2422 15.5859 20.625 15.7656C21.0156 15.9375 21.4297 16.0234 21.8672 16.0234C22.3047 16.0234 22.7148 15.9414 23.0977 15.7773C23.4883 15.6133 23.8281 15.3828 24.1172 15.0859C24.4062 14.7891 24.6328 14.4297 24.7969 14.0078C24.9688 13.5859 25.0547 13.1211 25.0547 12.6133ZM42.1758 19H41.4023L40.1602 17.2773C39.8555 17.5508 39.5312 17.8086 39.1875 18.0508C38.8516 18.2852 38.4961 18.4922 38.1211 18.6719C37.7461 18.8438 37.3594 18.9805 36.9609 19.082C36.5703 19.1836 36.1719 19.2344 35.7656 19.2344C34.8828 19.2344 34.0508 19.0703 33.2695 18.7422C32.4961 18.4062 31.8164 17.9453 31.2305 17.3594C30.6523 16.7656 30.1953 16.0664 29.8594 15.2617C29.5234 14.4492 29.3555 13.5664 29.3555 12.6133C29.3555 11.668 29.5234 10.7891 29.8594 9.97656C30.1953 9.16406 30.6523 8.46094 31.2305 7.86719C31.8164 7.27344 32.4961 6.80859 33.2695 6.47266C34.0508 6.13672 34.8828 5.96875 35.7656 5.96875C36.0469 5.96875 36.3359 5.99219 36.6328 6.03906C36.9375 6.08594 37.2305 6.16406 37.5117 6.27344C37.8008 6.375 38.0703 6.51172 38.3203 6.68359C38.5703 6.85547 38.7812 7.06641 38.9531 7.31641V1.45703H42.1758V19ZM38.9531 12.6133C38.9531 12.1758 38.8672 11.7539 38.6953 11.3477C38.5312 10.9336 38.3047 10.5703 38.0156 10.2578C37.7266 9.9375 37.3867 9.68359 36.9961 9.49609C36.6133 9.30078 36.2031 9.20312 35.7656 9.20312C35.3281 9.20312 34.9141 9.28125 34.5234 9.4375C34.1406 9.59375 33.8047 9.82031 33.5156 10.1172C33.2344 10.4062 33.0117 10.7617 32.8477 11.1836C32.6836 11.6055 32.6016 12.082 32.6016 12.6133C32.6016 13.0742 32.6836 13.5117 32.8477 13.9258C33.0117 14.3398 33.2344 14.7031 33.5156 15.0156C33.8047 15.3281 34.1406 15.5742 34.5234 15.7539C34.9141 15.9336 35.3281 16.0234 35.7656 16.0234C36.2031 16.0234 36.6133 15.9297 36.9961 15.7422C37.3867 15.5469 37.7266 15.293 38.0156 14.9805C38.3047 14.6602 38.5312 14.2969 38.6953 13.8906C38.8672 13.4766 38.9531 13.0508 38.9531 12.6133ZM49.6172 15.9297C49.7422 15.9688 49.8672 15.9961 49.9922 16.0117C50.1172 16.0195 50.2422 16.0234 50.3672 16.0234C50.6797 16.0234 50.9805 15.9805 51.2695 15.8945C51.5586 15.8086 51.8281 15.6875 52.0781 15.5312C52.3359 15.3672 52.5625 15.1719 52.7578 14.9453C52.9609 14.7109 53.125 14.4531 53.25 14.1719L55.5938 16.5273C55.2969 16.9492 54.9531 17.3281 54.5625 17.6641C54.1797 18 53.7617 18.2852 53.3086 18.5195C52.8633 18.7539 52.3906 18.9297 51.8906 19.0469C51.3984 19.1719 50.8906 19.2344 50.3672 19.2344C49.4844 19.2344 48.6523 19.0703 47.8711 18.7422C47.0977 18.4141 46.418 17.957 45.832 17.3711C45.2539 16.7852 44.7969 16.0898 44.4609 15.2852C44.125 14.4727 43.957 13.582 43.957 12.6133C43.957 11.6211 44.125 10.7148 44.4609 9.89453C44.7969 9.07422 45.2539 8.375 45.832 7.79688C46.418 7.21875 47.0977 6.76953 47.8711 6.44922C48.6523 6.12891 49.4844 5.96875 50.3672 5.96875C50.8906 5.96875 51.4023 6.03125 51.9023 6.15625C52.4023 6.28125 52.875 6.46094 53.3203 6.69531C53.7734 6.92969 54.1953 7.21875 54.5859 7.5625C54.9766 7.89844 55.3203 8.27734 55.6172 8.69922L49.6172 15.9297ZM51.2578 9.33203C51.1094 9.27734 50.9609 9.24219 50.8125 9.22656C50.6719 9.21094 50.5234 9.20312 50.3672 9.20312C49.9297 9.20312 49.5156 9.28516 49.125 9.44922C48.7422 9.60547 48.4062 9.83203 48.1172 10.1289C47.8359 10.4258 47.6133 10.7852 47.4492 11.207C47.2852 11.6211 47.2031 12.0898 47.2031 12.6133C47.2031 12.7305 47.207 12.8633 47.2148 13.0117C47.2305 13.1602 47.25 13.3125 47.2734 13.4688C47.3047 13.6172 47.3398 13.7617 47.3789 13.9023C47.418 14.043 47.4688 14.168 47.5312 14.2773L51.2578 9.33203ZM56.5898 7.23438C56.5898 6.53906 56.7227 5.88672 56.9883 5.27734C57.2539 4.66797 57.6133 4.13672 58.0664 3.68359C58.5273 3.22266 59.0625 2.85938 59.6719 2.59375C60.2812 2.32812 60.9336 2.19531 61.6289 2.19531H69.3398V5.55859H61.6289C61.3945 5.55859 61.1758 5.60156 60.9727 5.6875C60.7695 5.77344 60.5898 5.89453 60.4336 6.05078C60.2852 6.19922 60.168 6.375 60.082 6.57812C59.9961 6.78125 59.9531 7 59.9531 7.23438C59.9531 7.46875 59.9961 7.69141 60.082 7.90234C60.168 8.10547 60.2852 8.28516 60.4336 8.44141C60.5898 8.58984 60.7695 8.70703 60.9727 8.79297C61.1758 8.87891 61.3945 8.92188 61.6289 8.92188H64.9922C65.6875 8.92188 66.3398 9.05469 66.9492 9.32031C67.5664 9.57812 68.1016 9.9375 68.5547 10.3984C69.0156 10.8516 69.375 11.3867 69.6328 12.0039C69.8984 12.6133 70.0312 13.2656 70.0312 13.9609C70.0312 14.6562 69.8984 15.3086 69.6328 15.918C69.375 16.5273 69.0156 17.0625 68.5547 17.5234C68.1016 17.9766 67.5664 18.3359 66.9492 18.6016C66.3398 18.8672 65.6875 19 64.9922 19H57.5273V15.6367H64.9922C65.2266 15.6367 65.4453 15.5938 65.6484 15.5078C65.8516 15.4219 66.0273 15.3047 66.1758 15.1562C66.332 15 66.4531 14.8203 66.5391 14.6172C66.625 14.4141 66.668 14.1953 66.668 13.9609C66.668 13.7266 66.625 13.5078 66.5391 13.3047C66.4531 13.1016 66.332 12.9258 66.1758 12.7773C66.0273 12.6211 65.8516 12.5 65.6484 12.4141C65.4453 12.3281 65.2266 12.2852 64.9922 12.2852H61.6289C60.9336 12.2852 60.2812 12.1523 59.6719 11.8867C59.0625 11.6211 58.5273 11.2617 58.0664 10.8086C57.6133 10.3477 57.2539 9.8125 56.9883 9.20312C56.7227 8.58594 56.5898 7.92969 56.5898 7.23438ZM84.0586 19H83.2852L82.043 17.2773C81.7383 17.5508 81.4141 17.8086 81.0703 18.0508C80.7344 18.2852 80.3789 18.4922 80.0039 18.6719C79.6289 18.8438 79.2422 18.9805 78.8438 19.082C78.4531 19.1836 78.0547 19.2344 77.6484 19.2344C76.7656 19.2344 75.9336 19.0859 75.1523 18.7891C74.3789 18.4922 73.6992 18.0625 73.1133 17.5C72.5352 16.9297 72.0781 16.2344 71.7422 15.4141C71.4062 14.5938 71.2383 13.6602 71.2383 12.6133C71.2383 11.6367 71.4062 10.7422 71.7422 9.92969C72.0781 9.10938 72.5352 8.40625 73.1133 7.82031C73.6992 7.23438 74.3789 6.78125 75.1523 6.46094C75.9336 6.13281 76.7656 5.96875 77.6484 5.96875C78.0547 5.96875 78.457 6.01953 78.8555 6.12109C79.2539 6.22266 79.6406 6.36328 80.0156 6.54297C80.3906 6.72266 80.7461 6.93359 81.082 7.17578C81.4258 7.41797 81.7461 7.67969 82.043 7.96094L83.2852 6.47266H84.0586V19ZM80.8359 12.6133C80.8359 12.1758 80.75 11.7539 80.5781 11.3477C80.4141 10.9336 80.1875 10.5703 79.8984 10.2578C79.6094 9.9375 79.2695 9.68359 78.8789 9.49609C78.4961 9.30078 78.0859 9.20312 77.6484 9.20312C77.2109 9.20312 76.7969 9.27734 76.4062 9.42578C76.0234 9.57422 75.6875 9.79297 75.3984 10.082C75.1172 10.3711 74.8945 10.7305 74.7305 11.1602C74.5664 11.582 74.4844 12.0664 74.4844 12.6133C74.4844 13.1602 74.5664 13.6484 74.7305 14.0781C74.8945 14.5 75.1172 14.8555 75.3984 15.1445C75.6875 15.4336 76.0234 15.6523 76.4062 15.8008C76.7969 15.9492 77.2109 16.0234 77.6484 16.0234C78.0859 16.0234 78.4961 15.9297 78.8789 15.7422C79.2695 15.5469 79.6094 15.293 79.8984 14.9805C80.1875 14.6602 80.4141 14.2969 80.5781 13.8906C80.75 13.4766 80.8359 13.0508 80.8359 12.6133ZM95.4375 12.6133C95.4375 12.1758 95.3516 11.7539 95.1797 11.3477C95.0156 10.9336 94.7891 10.5703 94.5 10.2578C94.2109 9.9375 93.8711 9.68359 93.4805 9.49609C93.0977 9.30078 92.6875 9.20312 92.25 9.20312C91.8125 9.20312 91.3984 9.27734 91.0078 9.42578C90.625 9.57422 90.2891 9.79297 90 10.082C89.7188 10.3711 89.4961 10.7305 89.332 11.1602C89.168 11.582 89.0859 12.0664 89.0859 12.6133C89.0859 13.1367 89.168 13.6094 89.332 14.0312C89.4961 14.4453 89.7188 14.8008 90 15.0977C90.2891 15.3945 90.625 15.625 91.0078 15.7891C91.3984 15.9453 91.8125 16.0234 92.25 16.0234C92.6875 16.0234 93.0977 15.9297 93.4805 15.7422C93.8711 15.5469 94.2109 15.293 94.5 14.9805C94.7891 14.6602 95.0156 14.2969 95.1797 13.8906C95.3516 13.4766 95.4375 13.0508 95.4375 12.6133ZM98.6602 17.418C98.6602 18.3008 98.4922 19.1289 98.1562 19.9023C97.8203 20.6758 97.3594 21.3516 96.7734 21.9297C96.1953 22.5078 95.5156 22.9648 94.7344 23.3008C93.9609 23.6367 93.1328 23.8047 92.25 23.8047L90.6445 23.7812V20.582L92.2266 20.6055C92.7266 20.6055 93.1523 20.5391 93.5039 20.4062C93.8555 20.2812 94.1523 20.1055 94.3945 19.8789C94.6367 19.6602 94.8281 19.4062 94.9688 19.1172C95.1172 18.8281 95.2344 18.5234 95.3203 18.2031C95.1953 18.4062 95.0156 18.5742 94.7812 18.707C94.5469 18.832 94.2852 18.9336 93.9961 19.0117C93.7148 19.0977 93.418 19.1562 93.1055 19.1875C92.8008 19.2188 92.5156 19.2344 92.25 19.2344C91.3672 19.2344 90.5352 19.082 89.7539 18.7773C88.9805 18.4727 88.3008 18.0391 87.7148 17.4766C87.1367 16.9062 86.6797 16.2109 86.3438 15.3906C86.0078 14.5703 85.8398 13.6445 85.8398 12.6133C85.8398 11.668 86.0078 10.7891 86.3438 9.97656C86.6797 9.16406 87.1367 8.46094 87.7148 7.86719C88.3008 7.27344 88.9805 6.80859 89.7539 6.47266C90.5352 6.13672 91.3672 5.96875 92.25 5.96875C92.6562 5.96875 93.0586 6.01953 93.457 6.12109C93.8555 6.22266 94.2422 6.36328 94.6172 6.54297C94.9922 6.72266 95.3477 6.93359 95.6836 7.17578C96.0273 7.41797 96.3477 7.67969 96.6445 7.96094L97.8867 6.47266H98.6602V17.418ZM106.102 15.9297C106.227 15.9688 106.352 15.9961 106.477 16.0117C106.602 16.0195 106.727 16.0234 106.852 16.0234C107.164 16.0234 107.465 15.9805 107.754 15.8945C108.043 15.8086 108.312 15.6875 108.562 15.5312C108.82 15.3672 109.047 15.1719 109.242 14.9453C109.445 14.7109 109.609 14.4531 109.734 14.1719L112.078 16.5273C111.781 16.9492 111.438 17.3281 111.047 17.6641C110.664 18 110.246 18.2852 109.793 18.5195C109.348 18.7539 108.875 18.9297 108.375 19.0469C107.883 19.1719 107.375 19.2344 106.852 19.2344C105.969 19.2344 105.137 19.0703 104.355 18.7422C103.582 18.4141 102.902 17.957 102.316 17.3711C101.738 16.7852 101.281 16.0898 100.945 15.2852C100.609 14.4727 100.441 13.582 100.441 12.6133C100.441 11.6211 100.609 10.7148 100.945 9.89453C101.281 9.07422 101.738 8.375 102.316 7.79688C102.902 7.21875 103.582 6.76953 104.355 6.44922C105.137 6.12891 105.969 5.96875 106.852 5.96875C107.375 5.96875 107.887 6.03125 108.387 6.15625C108.887 6.28125 109.359 6.46094 109.805 6.69531C110.258 6.92969 110.68 7.21875 111.07 7.5625C111.461 7.89844 111.805 8.27734 112.102 8.69922L106.102 15.9297ZM107.742 9.33203C107.594 9.27734 107.445 9.24219 107.297 9.22656C107.156 9.21094 107.008 9.20312 106.852 9.20312C106.414 9.20312 106 9.28516 105.609 9.44922C105.227 9.60547 104.891 9.83203 104.602 10.1289C104.32 10.4258 104.098 10.7852 103.934 11.207C103.77 11.6211 103.688 12.0898 103.688 12.6133C103.688 12.7305 103.691 12.8633 103.699 13.0117C103.715 13.1602 103.734 13.3125 103.758 13.4688C103.789 13.6172 103.824 13.7617 103.863 13.9023C103.902 14.043 103.953 14.168 104.016 14.2773L107.742 9.33203ZM117.656 17.8047C117.656 18.0859 117.605 18.3516 117.504 18.6016C117.402 18.8438 117.262 19.0547 117.082 19.2344C116.902 19.4141 116.691 19.5547 116.449 19.6562C116.207 19.7656 115.945 19.8203 115.664 19.8203C115.391 19.8203 115.129 19.7656 114.879 19.6562C114.637 19.5547 114.422 19.4141 114.234 19.2344C114.055 19.0547 113.91 18.8438 113.801 18.6016C113.699 18.3516 113.648 18.0859 113.648 17.8047C113.648 17.5312 113.699 17.2734 113.801 17.0312C113.91 16.7891 114.055 16.5781 114.234 16.3984C114.422 16.2188 114.637 16.0781 114.879 15.9766C115.129 15.8672 115.391 15.8125 115.664 15.8125C115.945 15.8125 116.207 15.8672 116.449 15.9766C116.691 16.0781 116.902 16.2188 117.082 16.3984C117.262 16.5781 117.402 16.7891 117.504 17.0312C117.605 17.2734 117.656 17.5312 117.656 17.8047ZM123.82 3.03906C123.82 3.33594 123.762 3.61328 123.645 3.87109C123.535 4.12891 123.383 4.35547 123.188 4.55078C122.992 4.73828 122.762 4.89062 122.496 5.00781C122.238 5.11719 121.961 5.17188 121.664 5.17188C121.367 5.17188 121.086 5.11719 120.82 5.00781C120.562 4.89062 120.336 4.73828 120.141 4.55078C119.953 4.35547 119.801 4.12891 119.684 3.87109C119.574 3.61328 119.52 3.33594 119.52 3.03906C119.52 2.75 119.574 2.47656 119.684 2.21875C119.801 1.95312 119.953 1.72656 120.141 1.53906C120.336 1.34375 120.562 1.19141 120.82 1.08203C121.086 0.964844 121.367 0.90625 121.664 0.90625C121.961 0.90625 122.238 0.964844 122.496 1.08203C122.762 1.19141 122.992 1.34375 123.188 1.53906C123.383 1.72656 123.535 1.95312 123.645 2.21875C123.762 2.47656 123.82 2.75 123.82 3.03906ZM123.27 19H120.047V6.44922H123.27V19ZM137.848 12.6133C137.848 13.5508 137.68 14.4258 137.344 15.2383C137.008 16.043 136.551 16.7422 135.973 17.3359C135.395 17.9219 134.715 18.3867 133.934 18.7305C133.16 19.0664 132.328 19.2344 131.438 19.2344C130.555 19.2344 129.723 19.0664 128.941 18.7305C128.168 18.3867 127.488 17.9219 126.902 17.3359C126.324 16.7422 125.867 16.043 125.531 15.2383C125.195 14.4258 125.027 13.5508 125.027 12.6133C125.027 11.6602 125.195 10.7773 125.531 9.96484C125.867 9.15234 126.324 8.45312 126.902 7.86719C127.488 7.27344 128.168 6.80859 128.941 6.47266C129.723 6.13672 130.555 5.96875 131.438 5.96875C132.328 5.96875 133.16 6.12891 133.934 6.44922C134.715 6.76172 135.395 7.21094 135.973 7.79688C136.551 8.375 137.008 9.07422 137.344 9.89453C137.68 10.707 137.848 11.6133 137.848 12.6133ZM134.625 12.6133C134.625 12.0977 134.539 11.6328 134.367 11.2188C134.203 10.7969 133.977 10.4375 133.688 10.1406C133.398 9.83594 133.059 9.60547 132.668 9.44922C132.285 9.28516 131.875 9.20312 131.438 9.20312C131 9.20312 130.586 9.28516 130.195 9.44922C129.812 9.60547 129.477 9.83594 129.188 10.1406C128.906 10.4375 128.684 10.7969 128.52 11.2188C128.355 11.6328 128.273 12.0977 128.273 12.6133C128.273 13.0977 128.355 13.5469 128.52 13.9609C128.684 14.375 128.906 14.7344 129.188 15.0391C129.477 15.3438 129.812 15.5859 130.195 15.7656C130.586 15.9375 131 16.0234 131.438 16.0234C131.875 16.0234 132.285 15.9414 132.668 15.7773C133.059 15.6133 133.398 15.3828 133.688 15.0859C133.977 14.7891 134.203 14.4297 134.367 14.0078C134.539 13.5859 134.625 13.1211 134.625 12.6133Z" fill="black"/>
</svg>
