<svg width="21" height="24" viewBox="0 0 21 24" fill="none" xmlns="http://www.w3.org/2000/svg">
<path d="M14.6 21.8333C13.64 20.5 12.8887 17.922 12.8 16.6333L8.23333 14.6667L6.33333 21.8333H14.6Z" fill="#F9C9B6" stroke="black" stroke-width="0.266667"/>
<g style="mix-blend-mode:multiply">
<path d="M13.0247 18.1127C12.8847 18.126 12.7433 18.1333 12.6 18.1333C10.548 18.1333 8.86333 16.6953 8.68266 14.86L12.8 16.6333C12.8253 16.9987 12.9033 17.5213 13.0247 18.1127Z" fill="black"/>
</g>
<path d="M16.4627 10.6247V10.6253L16.4693 10.652L16.4787 10.6953C16.7635 11.9873 16.5297 13.3394 15.8276 14.4607C15.1256 15.5821 14.0114 16.383 12.7249 16.6911C11.4383 16.9993 10.0822 16.7901 8.9483 16.1085C7.81442 15.4269 6.99344 14.3274 6.662 13.0467L6.64866 12.9973L5.53333 8.342L5.52933 8.32267C5.23496 7.02718 5.46316 5.66787 6.16443 4.53952C6.8657 3.41117 7.9835 2.60475 9.27544 2.29515C10.5674 1.98555 11.9293 2.19771 13.0658 2.88564C14.2023 3.57357 15.0219 4.6818 15.3467 5.97L15.35 5.984L15.3513 5.98933L15.3547 6.00267L15.358 6.016V6.01667L16.4513 10.5793L16.4567 10.602L16.462 10.6247H16.4627Z" fill="#F9C9B6" stroke="black" stroke-width="0.266667"/>
<path d="M14.7857 11.8168C14.6129 12.3622 13.9081 13.5402 12.4706 13.8897C11.0332 14.2393 10.2253 13.4962 10.0017 13.0814" stroke="black" stroke-width="0.266667"/>
<path d="M8.13333 7.56667C8.54466 7.73334 9.53999 7.76667 10.2333 6.56667M12.6 6.06667C12.9447 6.422 13.8067 6.92 14.5 6.06667M8.80999 7.564L8.39999 7.202M14.0813 6.42934L14.2 5.896M9.37333 7.32067L9.10333 6.84534M13.5427 6.40134L13.6053 5.858M9.84466 6.94667L9.69799 6.42M13 6.33534L12.948 5.79134" stroke="black" stroke-width="0.266667" stroke-linecap="round"/>
<path d="M1.37333 20.5907L1.332 20.4813C1.29467 20.378 1.242 20.2253 1.18333 20.032C1.02602 19.5087 0.908357 18.9743 0.831333 18.4333C0.644 17.1153 0.644666 15.38 1.39133 13.692C1.51133 13.4193 1.66267 13.1387 1.826 12.8353C2.45733 11.662 3.27733 10.138 3.27733 7.33867C3.27733 5.29933 4.26667 3.582 5.724 2.37133C7.18267 1.15933 9.104 0.460667 10.9493 0.460667C11.958 0.460667 12.7693 0.576 13.4207 0.97C14.0687 1.36133 14.5787 2.04 14.9573 3.20867C14.9664 3.23772 14.9812 3.26469 15.0007 3.28803C15.0203 3.31136 15.0442 3.33062 15.0713 3.34468C15.0983 3.35873 15.1278 3.36733 15.1581 3.36996C15.1884 3.37258 15.219 3.3692 15.248 3.36C16.002 3.11533 17.146 3.36267 18.1113 3.99333C19.0727 4.62 19.8193 5.60333 19.8193 6.78733C19.8193 7.816 19.6433 8.51067 19.4713 9.18733C19.2633 10.0073 19.0627 10.798 19.2047 12.0873C19.2513 12.5173 19.348 12.8227 19.482 13.0753C19.614 13.324 19.7807 13.5167 19.9567 13.7193L19.96 13.724C20.3787 14.2073 20.5687 14.6053 20.6307 14.9553C20.692 15.304 20.6273 15.6207 20.508 15.9487C20.448 16.114 20.3747 16.28 20.298 16.4547L20.2913 16.4693C20.2167 16.638 20.138 16.8153 20.068 17.0013C19.9227 17.386 19.8087 17.8147 19.82 18.3233C19.83 18.7553 19.9067 19.0507 20.0207 19.2747C20.134 19.496 20.28 19.6373 20.4073 19.7613L20.4107 19.7647C20.5267 19.8767 20.624 19.9713 20.6953 20.1047C20.7593 20.2233 20.8067 20.38 20.8147 20.6153C19.0496 21.6572 17.0377 22.2074 14.988 22.2087C14.8261 22.2078 14.6642 22.2015 14.5027 22.19C14.0927 21.5633 13.7193 20.5313 13.4293 19.47C13.1487 18.4393 12.9507 17.398 12.876 16.71C15.348 15.9953 16.8973 13.4447 16.5247 10.8127L16.524 10.8047C16.5226 10.7942 16.5209 10.7837 16.5187 10.7733C16.5099 10.7232 16.5003 10.6732 16.49 10.6233C16.3636 9.99249 16.2184 9.36555 16.0547 8.74333C15.9138 8.19826 15.7481 7.65992 15.558 7.13C15.374 6.63 15.1693 6.18667 14.9513 5.914L14.9313 5.88933L14.902 5.876C14.7733 5.82067 14.6393 5.758 14.5 5.69333C13.838 5.38533 13.044 5.01533 12.016 4.97467C10.764 4.92533 9.17867 5.36 7.036 6.914L6.90133 7.01133L7.03133 7.116C8.09267 7.97133 8.32267 9.10667 8.27333 10.0693C8.23808 10.641 8.12042 11.2046 7.924 11.7427C7.84667 11.63 7.79733 11.488 7.76067 11.3207C7.7354 11.2003 7.71406 11.0791 7.69667 10.9573L7.69333 10.9373C7.67333 10.804 7.65133 10.6653 7.62 10.5313C7.556 10.264 7.44867 9.99667 7.21067 9.80733C6.972 9.618 6.624 9.524 6.11733 9.552L5.96933 9.56067L6 9.706L6.75733 13.26L6.75867 13.2653L6.76067 13.2713C7.01859 14.0976 7.47421 14.8484 8.088 15.4587C8.12362 15.5174 8.15786 15.577 8.19067 15.6373C8.258 15.7587 8.34867 15.9293 8.44133 16.126C8.62933 16.522 8.81867 17.0087 8.85467 17.406C8.89267 17.8093 8.79067 18.33 8.67467 18.76C8.61908 18.9654 8.55592 19.1686 8.48533 19.3693C8.15 19.2093 7.85 19.2207 7.59333 19.37C7.316 19.532 7.11267 19.8407 6.96133 20.1847C6.68467 20.8127 6.552 21.6273 6.49067 22.1327C5.2038 21.8424 3.93203 21.4889 2.68 21.0733C2.3395 20.9597 2.00163 20.8384 1.66667 20.7093C1.5684 20.6712 1.47062 20.6319 1.37333 20.5913V20.5907Z" fill="#FC909F" stroke="black" stroke-width="0.254667"/>
<path d="M9.57017 9.07787C10.0093 9.02954 10.3262 8.63433 10.2779 8.19516C10.2295 7.75598 9.83433 7.43914 9.39515 7.48747C8.95597 7.5358 8.63913 7.931 8.68746 8.37018C8.73579 8.80935 9.13099 9.1262 9.57017 9.07787Z" fill="#FFEDEF"/>
<path d="M9.67491 9.78704C10.004 9.74792 10.2231 9.31608 10.1645 8.8225C10.1058 8.32892 9.79146 7.96051 9.46241 7.99963C9.13335 8.03875 8.91417 8.47059 8.97286 8.96417C9.03154 9.45775 9.34586 9.82616 9.67491 9.78704Z" fill="black"/>
<path d="M13.8222 8.50253C14.2613 8.4542 14.5782 8.059 14.5299 7.61982C14.4815 7.18065 14.0863 6.8638 13.6472 6.91214C13.208 6.96047 12.8911 7.35567 12.9395 7.79484C12.9878 8.23402 13.383 8.55086 13.8222 8.50253Z" fill="#FFEDEF"/>
<path d="M13.9338 9.12127C14.2632 9.08502 14.4861 8.65511 14.4317 8.16104C14.3774 7.66696 14.0663 7.29582 13.7369 7.33207C13.4075 7.36832 13.1846 7.79823 13.2389 8.2923C13.2933 8.78637 13.6044 9.15752 13.9338 9.12127Z" fill="black"/>
<path d="M8.09999 9.23334L5.79999 9.67467" stroke="#77311D" stroke-width="0.266667" stroke-linecap="round"/>
<path d="M11.3667 8.87467L12.8333 8.64133M8.16466 7.63534L10.7467 7.27334C10.8516 7.25869 10.958 7.28626 11.0426 7.35001C11.1272 7.41375 11.1831 7.50845 11.198 7.61334L11.5693 10.2547C11.5842 10.3597 11.5567 10.4663 11.4929 10.5511C11.4292 10.6358 11.3343 10.6918 11.2293 10.7067L8.93066 11.0293C8.83294 11.043 8.73361 11.0201 8.65178 10.9649C8.56994 10.9098 8.51137 10.8264 8.48733 10.7307L7.83333 8.13C7.81969 8.07561 7.81764 8.01897 7.82731 7.96373C7.83698 7.9085 7.85816 7.85592 7.88947 7.8094C7.92077 7.76288 7.96151 7.72347 8.00903 7.69371C8.05656 7.66395 8.10981 7.64452 8.16533 7.63667L8.16466 7.63534ZM15.528 6.61467L12.9467 6.97734C12.8416 6.9922 12.7468 7.04817 12.6831 7.13293C12.6193 7.2177 12.5918 7.32431 12.6067 7.42934L12.9773 10.0693C12.9846 10.1214 13.0021 10.1715 13.0287 10.2168C13.0554 10.2621 13.0907 10.3017 13.1327 10.3334C13.1747 10.365 13.2225 10.388 13.2734 10.4012C13.3243 10.4144 13.3773 10.4173 13.4293 10.41L15.7273 10.0873C15.8251 10.0736 15.9143 10.0242 15.9778 9.94859C16.0413 9.87303 16.0746 9.77665 16.0713 9.678L15.9833 6.998C15.9815 6.94189 15.9679 6.88678 15.9434 6.83626C15.9189 6.78575 15.8841 6.74095 15.8411 6.70479C15.7982 6.66864 15.7481 6.64193 15.6942 6.6264C15.6402 6.61087 15.5836 6.60687 15.528 6.61467Z" stroke="#77311D" stroke-width="0.266667"/>
<path d="M11.6847 9.59521C12.033 9.46279 12.6398 9.50272 12.6025 10.1758C12.5694 10.7742 11.956 10.8928 11.76 10.7533" stroke="black" stroke-width="0.266667"/>
<path d="M6.63333 9.67867C6.47365 9.6264 6.30668 9.59985 6.13866 9.6C5.43866 9.6 4.87199 10.0333 4.93866 10.8333C5.00799 11.6667 5.50533 11.9667 6.20533 11.9667C6.36295 11.9665 6.51925 11.9378 6.66666 11.882" stroke="black" stroke-width="0.533333"/>
<path d="M6.69999 11.8693C6.5431 11.934 6.37501 11.967 6.20533 11.9667C5.50533 11.9667 5.00799 11.6667 4.93866 10.8333C4.87199 10.0333 5.43866 9.60001 6.13866 9.60001C6.34799 9.60001 6.55133 9.64001 6.73333 9.71535L6.69999 11.8687V11.8693Z" fill="#F9C9B6"/>
<path d="M6.43333 10.1667C6.16667 10.0447 5.58 9.98 5.36667 10.7" stroke="black" stroke-width="0.266667"/>
<path d="M5.73333 10.2C5.878 10.322 6.15333 10.7 6.1 11.2333" stroke="black" stroke-width="0.266667"/>
<path d="M6.46667 12C6.61394 12 6.73333 11.8806 6.73333 11.7333C6.73333 11.5861 6.61394 11.4667 6.46667 11.4667C6.31939 11.4667 6.2 11.5861 6.2 11.7333C6.2 11.8806 6.31939 12 6.46667 12Z" fill="#FC909F"/>
<path d="M6.53334 11.7333C6.57016 11.7333 6.6 11.7035 6.6 11.6667C6.6 11.6299 6.57016 11.6 6.53334 11.6C6.49652 11.6 6.46667 11.6299 6.46667 11.6667C6.46667 11.7035 6.49652 11.7333 6.53334 11.7333Z" fill="white"/>
<path d="M10.9847 21.6387L11.0993 21.728L11.1787 21.606V21.6047L11.182 21.6007L11.1847 21.5973C11.2018 21.5707 11.2196 21.5444 11.238 21.5187C11.4679 21.1863 11.7243 20.873 12.0047 20.582C12.2493 20.33 12.5267 20.0887 12.8133 19.92C13.1007 19.7513 13.3853 19.664 13.6487 19.7C16.478 20.08 18.56 21.3333 19.9113 23.2H1.69132C2.77799 21.244 4.32399 19.9987 6.82932 19.4273C6.93599 19.4033 7.08132 19.4107 7.26266 19.4527C7.44266 19.4947 7.64732 19.568 7.86866 19.6653C8.30999 19.8587 8.80332 20.1427 9.26666 20.436C9.84424 20.8033 10.4057 21.1955 10.9493 21.6113L10.976 21.6313L10.9827 21.6367L10.984 21.638H10.9847V21.6387Z" fill="#FFEDEF"/>
<path d="M10.9847 21.6387L11.0667 21.5333M10.9847 21.6387L11.0993 21.728L11.1787 21.606V21.6047L11.182 21.6007L11.1847 21.5973C11.2018 21.5707 11.2196 21.5444 11.238 21.5187C11.4679 21.1863 11.7243 20.873 12.0047 20.582C12.2493 20.33 12.5267 20.0887 12.8133 19.92C13.1007 19.7513 13.3853 19.664 13.6487 19.7C16.478 20.08 18.56 21.3333 19.9113 23.2H1.69132C2.77799 21.244 4.32399 19.9987 6.82932 19.4273C6.93599 19.4033 7.08132 19.4107 7.26266 19.4527C7.44266 19.4947 7.64732 19.568 7.86866 19.6653C8.30999 19.8587 8.80332 20.1427 9.26666 20.436C9.84424 20.8033 10.4057 21.1955 10.9493 21.6113L10.976 21.6313L10.9827 21.6367L10.984 21.638H10.9847V21.6387Z" stroke="black" stroke-width="0.266667"/>
<path d="M6.04066 19.6053L6.38532 18.3233C6.39866 18.2713 6.46666 18.2567 6.50266 18.2967C7.49332 19.38 8.74399 19.3387 9.15999 19.2887C9.21599 19.282 9.25999 19.3433 9.23332 19.394L8.35599 21.0573C8.34266 21.0827 8.31466 21.0973 8.28666 21.0907C8.02332 21.036 6.71199 20.7153 6.04866 19.6573C6.04387 19.6497 6.04069 19.6411 6.03931 19.6322C6.03794 19.6232 6.03839 19.6141 6.04066 19.6053ZM14.7467 19.5987L13.974 18.3C13.9473 18.256 13.8827 18.2567 13.8547 18.3C13.4727 18.8887 12.8127 19.16 12.582 19.24C12.5407 19.2547 12.522 19.304 12.544 19.342L13.444 20.8627C13.4573 20.8853 13.4833 20.898 13.5087 20.8907C13.6507 20.85 14.1393 20.646 14.7447 19.668C14.7511 19.6576 14.7546 19.6457 14.7547 19.6334C14.7548 19.6212 14.7516 19.6092 14.7453 19.5987H14.7467Z" fill="#FFEDEF" stroke="black" stroke-width="0.266667"/>
<path d="M6.04066 19.6053L6.38532 18.3233C6.39866 18.2713 6.46666 18.2567 6.50266 18.2967C7.49332 19.38 8.74399 19.3387 9.15999 19.2887C9.21599 19.282 9.25999 19.3433 9.23332 19.394L8.35599 21.0573C8.34266 21.0827 8.31466 21.0973 8.28666 21.0907C8.02332 21.036 6.71199 20.7153 6.04866 19.6573C6.04387 19.6497 6.04069 19.6411 6.03931 19.6322C6.03794 19.6232 6.03839 19.6141 6.04066 19.6053ZM14.7467 19.5987L13.974 18.3C13.9473 18.256 13.8827 18.2567 13.8547 18.3C13.4727 18.8887 12.8127 19.16 12.582 19.24C12.5407 19.2547 12.522 19.304 12.544 19.342L13.444 20.8627C13.4573 20.8853 13.4833 20.898 13.5087 20.8907C13.6507 20.85 14.1393 20.646 14.7447 19.668C14.7511 19.6576 14.7546 19.6457 14.7547 19.6334C14.7548 19.6212 14.7516 19.6092 14.7453 19.5987H14.7467Z" fill="white" fill-opacity="0.75" stroke="black" stroke-width="0.266667"/>
<path d="M9.83332 20.7667L9.23332 19.3333L8.76666 20.3333L9.83332 20.7667ZM11.9333 20.7L12.5333 19.2667L13 20.2667L11.9333 20.7ZM7.23332 18.0667L6.43332 18.2667L7.09999 18.7L7.23332 18.0667ZM13.2 18.0667L13.9333 18.2667L13.4667 18.7L13.2 18.0667Z" fill="black" stroke="black" stroke-width="0.266667" stroke-linejoin="round"/>
</svg>
