<svg width="20" height="25" viewBox="0 0 20 25" fill="none" xmlns="http://www.w3.org/2000/svg">
<path d="M13.6 22.8333C12.64 21.5 11.8887 18.922 11.8 17.6333L7.23333 15.6667L5.33333 22.8333H13.6Z" fill="#77311D" stroke="black" stroke-width="0.266667"/>
<g style="mix-blend-mode:multiply">
<path d="M12.0247 19.1127C11.8847 19.126 11.7433 19.1333 11.6 19.1333C9.548 19.1333 7.86333 17.6953 7.68267 15.86L11.8 17.6333C11.8253 17.9987 11.9033 18.5213 12.0247 19.1127Z" fill="black"/>
</g>
<path d="M15.4627 11.6247V11.6253L15.4693 11.652L15.4787 11.6953C15.7635 12.9873 15.5297 14.3394 14.8277 15.4607C14.1256 16.5821 13.0114 17.383 11.7249 17.6911C10.4383 17.9993 9.08217 17.7901 7.9483 17.1085C6.81443 16.4269 5.99344 15.3274 5.662 14.0467L5.64867 13.9973L4.53333 9.342L4.52933 9.32267C4.23497 8.02718 4.46316 6.66787 5.16443 5.53952C5.8657 4.41117 6.98351 3.60476 8.27544 3.29515C9.56737 2.98555 10.9293 3.19772 12.0658 3.88565C13.2023 4.57358 14.0219 5.68181 14.3467 6.97L14.35 6.984L14.3513 6.98934L14.3547 7.00267L14.358 7.016V7.01667L15.4513 11.5793L15.4567 11.602L15.462 11.6247H15.4627Z" fill="#77311D" stroke="black" stroke-width="0.266667"/>
<path d="M9.3 13.3667C9.46666 14.5 11.3667 15.0333 13.1 13.7333" stroke="black" stroke-width="0.266667"/>
<path d="M7.13333 8.56667C7.54466 8.73334 8.54 8.76667 9.23333 7.56667M11.6 7.06667C11.9447 7.422 12.8067 7.92 13.5 7.06667" stroke="black" stroke-width="0.266667" stroke-linecap="round"/>
<path d="M15.2787 4.02667C15.194 4.43 14.972 4.78134 14.65 5.08667C15.2767 7.35734 15.29 8.678 14.942 8.93L13.9553 5.59734C11.8267 6.84667 7.84333 7.06 6.846 7.06C6.74267 7.07134 6.64467 7.08667 6.55067 7.10467C5.574 7.70467 6.37733 10.5793 7.334 11.8L6.60067 11.9333C6.258 10.2687 5.44 10.4053 4.82667 10.508L4.80533 10.5113C4.952 11.42 5.25333 12.3607 5.502 13.1327C5.56533 13.332 5.626 13.5193 5.67933 13.6927C5.62667 13.6993 5.58067 13.7127 5.538 13.724C5.17133 13.826 5.044 13.8613 3.31267 9.59267C2.88133 8.52934 2.91067 7.582 3.248 6.75134C2.92933 6.43134 2.29 6.27534 1.934 6.23267C2.63 5.82467 3.306 5.908 3.63667 6.026C3.67 5.976 3.70467 5.92667 3.74067 5.878C3.676 5.584 3.21 5.24734 2.93333 5.09C3.50333 4.80334 4.17333 4.95467 4.46533 5.07667C5.77533 3.87534 7.73533 3.07 9.4 2.66667C12.654 1.878 13.9 0.76667 13.9 0.76667C15.2787 1.33334 15.608 2.448 15.2787 4.02667Z" fill="#E0DDFF" stroke="black" stroke-width="0.266667"/>
<path d="M8.67491 10.787C9.00397 10.7479 9.22315 10.3161 9.16447 9.8225C9.10579 9.32892 8.79146 8.96051 8.46241 8.99963C8.13336 9.03875 7.91418 9.47059 7.97286 9.96417C8.03154 10.4577 8.34586 10.8262 8.67491 10.787Z" fill="black"/>
<path d="M12.9338 10.1213C13.2632 10.085 13.4861 9.65511 13.4317 9.16103C13.3774 8.66696 13.0663 8.29582 12.7369 8.33207C12.4075 8.36831 12.1846 8.79823 12.2389 9.2923C12.2933 9.78637 12.6044 10.1575 12.9338 10.1213Z" fill="black"/>
<path d="M10.6848 10.5952C11.033 10.4628 11.6398 10.5027 11.6025 11.1758C11.5694 11.7742 10.956 11.8928 10.76 11.7533" stroke="black" stroke-width="0.266667"/>
<path d="M5.63333 10.6787C5.47365 10.6264 5.30668 10.5998 5.13867 10.6C4.43867 10.6 3.872 11.0333 3.93867 11.8333C4.008 12.6667 4.50533 12.9667 5.20533 12.9667C5.36296 12.9665 5.51925 12.9378 5.66667 12.882" stroke="black" stroke-width="0.533333"/>
<path d="M5.7 12.8693C5.5431 12.934 5.37501 12.967 5.20533 12.9667C4.50533 12.9667 4.008 12.6667 3.93867 11.8333C3.872 11.0333 4.43867 10.6 5.13867 10.6C5.348 10.6 5.55133 10.64 5.73333 10.7153L5.7 12.8687V12.8693Z" fill="#77311D"/>
<path d="M5.43334 11.1667C5.16667 11.0447 4.58 10.98 4.36667 11.7" stroke="black" stroke-width="0.266667"/>
<path d="M4.73334 11.2C4.878 11.322 5.15334 11.7 5.1 12.2333" stroke="black" stroke-width="0.266667"/>
<path d="M18.9133 24.2H0.690664C1.778 22.244 3.324 20.9987 5.82933 20.4267C6.89733 20.1833 8.14066 20.062 9.6 20.062C10.2307 20.062 10.7207 20.158 11.1867 20.2853C11.3587 20.332 11.532 20.3853 11.7093 20.4387C12.0027 20.528 12.3073 20.62 12.6367 20.696L12.646 20.698L12.656 20.6987C15.7307 20.952 17.5747 22.3187 18.9127 24.1987L18.9133 24.2Z" fill="#E0DDFF" stroke="black" stroke-width="0.266667"/>
<path d="M5.062 20.572L5.672 19.2653C5.67913 19.2503 5.69164 19.2384 5.70706 19.2322C5.72248 19.2259 5.7397 19.2256 5.75533 19.2313C8.284 20.126 10.584 20.0633 12.7153 19.4693C12.7286 19.4655 12.7427 19.4659 12.7557 19.4705C12.7687 19.475 12.78 19.4835 12.788 19.4947L13.7167 20.7647C13.7227 20.7727 13.7268 20.782 13.7287 20.7919C13.7305 20.8018 13.7301 20.8119 13.7274 20.8216C13.7247 20.8313 13.7198 20.8402 13.7131 20.8477C13.7063 20.8551 13.698 20.861 13.6887 20.8647C11.4487 21.7447 7.244 21.5947 5.09466 20.66C5.08665 20.6565 5.07942 20.6514 5.07341 20.645C5.0674 20.6386 5.06274 20.6311 5.05969 20.6229C5.05664 20.6147 5.05528 20.606 5.05567 20.5972C5.05607 20.5885 5.05822 20.5799 5.062 20.572Z" fill="#E0DDFF" stroke="black" stroke-width="0.266667"/>
<path opacity="0.75" d="M5.062 20.572L5.672 19.2653C5.67913 19.2503 5.69164 19.2384 5.70706 19.2322C5.72248 19.2259 5.7397 19.2256 5.75533 19.2313C8.284 20.126 10.584 20.0633 12.7153 19.4693C12.7286 19.4655 12.7427 19.4659 12.7557 19.4705C12.7687 19.475 12.78 19.4835 12.788 19.4947L13.7167 20.7647C13.7227 20.7727 13.7268 20.782 13.7287 20.7919C13.7305 20.8018 13.7301 20.8119 13.7274 20.8216C13.7247 20.8313 13.7198 20.8402 13.7131 20.8477C13.7063 20.8551 13.698 20.861 13.6887 20.8647C11.4487 21.7447 7.244 21.5947 5.09466 20.66C5.08665 20.6565 5.07942 20.6514 5.07341 20.645C5.0674 20.6386 5.06274 20.6311 5.05969 20.6229C5.05664 20.6147 5.05528 20.606 5.05567 20.5972C5.05607 20.5885 5.05822 20.5799 5.062 20.572Z" fill="white" stroke="black" stroke-width="0.266667"/>
</svg>
