<svg width="20" height="24" viewBox="0 0 20 24" fill="none" xmlns="http://www.w3.org/2000/svg">
<path d="M13.6 21.8333C12.64 20.5 11.8887 17.922 11.8 16.6333L7.23334 14.6667L5.33334 21.8333H13.6Z" fill="#F9C9B6" stroke="black" stroke-width="0.266667"/>
<g style="mix-blend-mode:multiply">
<path d="M12.0247 18.1127C11.8847 18.126 11.7433 18.1333 11.6 18.1333C9.548 18.1333 7.86333 16.6953 7.68267 14.86L11.8 16.6333C11.8253 16.9987 11.9033 17.5213 12.0247 18.1127Z" fill="black"/>
</g>
<path d="M15.4627 10.6247V10.6253L15.4693 10.652L15.4787 10.6953C15.7635 11.9873 15.5297 13.3394 14.8277 14.4607C14.1256 15.5821 13.0114 16.383 11.7249 16.6911C10.4383 16.9993 9.08218 16.7901 7.9483 16.1085C6.81443 15.4269 5.99344 14.3274 5.662 13.0467L5.64867 12.9973L4.53334 8.342L4.52934 8.32267C4.23497 7.02718 4.46317 5.66787 5.16444 4.53952C5.86571 3.41117 6.98351 2.60475 8.27545 2.29515C9.56738 1.98555 10.9293 2.19771 12.0658 2.88564C13.2023 3.57357 14.0219 4.6818 14.3467 5.97L14.35 5.984L14.3513 5.98933L14.3547 6.00267L14.358 6.016V6.01667L15.4513 10.5793L15.4567 10.602L15.462 10.6247H15.4627Z" fill="#F9C9B6" stroke="black" stroke-width="0.266667"/>
<path d="M13.8044 11.8559C13.6226 12.3984 12.8984 13.5646 11.4553 13.8902C10.0123 14.2159 9.21687 13.4595 9.00009 13.041" stroke="black" stroke-width="0.266667"/>
<path d="M11.9333 6.48067C12.3113 6.30333 13.2 6.14067 13.7333 6.914M6.90533 8.168C7.04333 7.77467 7.55067 7.02667 8.476 7.188" stroke="black" stroke-width="0.266667" stroke-linecap="round"/>
<path d="M9.51933 0.899334H9.52933C11.0575 0.933412 12.5239 1.50893 13.6673 2.52333C14.6047 3.35 15.164 4.31467 15.3467 4.972C15.076 5.12667 14.6127 5.25933 14.0213 5.36867C13.376 5.48733 12.6013 5.574 11.8113 5.636C10.2313 5.76 8.598 5.78267 7.836 5.76667L7.43133 5.758L7.75133 6.00533C7.918 6.134 8.14 6.224 8.374 6.28667C8.61067 6.35 8.86867 6.38933 9.11667 6.41133C9.37133 6.434 9.62 6.43933 9.826 6.434C9.12 6.978 8.222 7.39667 7.336 7.70667C6.47279 8.00724 5.58402 8.2286 4.68067 8.368L4.53733 8.38933L4.57067 8.53C4.79333 9.492 5.204 11.1733 5.47867 12.3013C5.60067 12.8013 5.696 13.1933 5.73667 13.364C5.80933 13.668 6.03667 14.1007 6.29667 14.4993C6.53667 14.8673 6.81533 15.2253 7.05133 15.446L6.52867 17.5667H4.558C5.114 16.7193 5.23133 15.74 5.118 14.7013C4.99533 13.5767 4.60067 12.368 4.18467 11.1567L4.06133 10.7993C3.682 9.702 3.304 8.60733 3.09933 7.55933C2.87267 6.39667 2.862 5.30933 3.288 4.35333C3.97733 2.806 5.19867 1.90667 6.42133 1.412C7.646 0.915334 8.862 0.828 9.51867 0.898L9.51933 0.899334Z" fill="white" stroke="black" stroke-width="0.266667"/>
<path d="M8.57018 9.07787C9.00936 9.02954 9.3262 8.63433 9.27787 8.19516C9.22954 7.75598 8.83434 7.43914 8.39516 7.48747C7.95598 7.5358 7.63914 7.931 7.68747 8.37018C7.7358 8.80935 8.131 9.1262 8.57018 9.07787Z" fill="#FFEBA4"/>
<path d="M8.67492 9.78704C9.00397 9.74792 9.22315 9.31608 9.16447 8.8225C9.10579 8.32892 8.79147 7.96051 8.46242 7.99963C8.13336 8.03875 7.91418 8.47059 7.97286 8.96417C8.03154 9.45775 8.34587 9.82616 8.67492 9.78704Z" fill="black"/>
<path d="M12.8222 8.50254C13.2614 8.45421 13.5782 8.059 13.5299 7.61983C13.4815 7.18065 13.0863 6.86381 12.6472 6.91214C12.208 6.96047 11.8911 7.35567 11.9395 7.79485C11.9878 8.23402 12.383 8.55087 12.8222 8.50254Z" fill="#FFEBA4"/>
<path d="M12.9338 9.12127C13.2632 9.08502 13.4861 8.65511 13.4317 8.16104C13.3774 7.66696 13.0663 7.29582 12.7369 7.33207C12.4075 7.36832 12.1846 7.79823 12.2389 8.2923C12.2933 8.78637 12.6044 9.15752 12.9338 9.12127Z" fill="black"/>
<path d="M12.9667 10C13.924 10 14.7 9.22396 14.7 8.26667C14.7 7.30937 13.924 6.53333 12.9667 6.53333C12.0094 6.53333 11.2333 7.30937 11.2333 8.26667C11.2333 9.22396 12.0094 10 12.9667 10Z" stroke="#FFEDEF" stroke-width="0.266667"/>
<path d="M8.5 10.6C9.45729 10.6 10.2333 9.82396 10.2333 8.86667C10.2333 7.90937 9.45729 7.13334 8.5 7.13334C7.54271 7.13334 6.76667 7.90937 6.76667 8.86667C6.76667 9.82396 7.54271 10.6 8.5 10.6Z" stroke="#FFEDEF" stroke-width="0.266667"/>
<path d="M11.3 8.73334C11.3 8.59189 11.2438 8.45623 11.1438 8.35621C11.0438 8.25619 10.9081 8.2 10.7667 8.2C10.6252 8.2 10.4896 8.25619 10.3895 8.35621C10.2895 8.45623 10.2333 8.59189 10.2333 8.73334M6.8 9L4.8 9.36667" stroke="#FFEDEF" stroke-width="0.266667"/>
<path d="M10.6848 9.59521C11.033 9.46278 11.6398 9.50272 11.6025 10.1758C11.5695 10.7742 10.956 10.8928 10.76 10.7533" stroke="black" stroke-width="0.266667"/>
<path d="M6.06667 9.81667V9.742L6.00333 9.70267C5.74219 9.54624 5.44307 9.4646 5.13867 9.46667C4.76267 9.46667 4.41067 9.58333 4.16 9.82C3.90667 10.0587 3.76933 10.4087 3.806 10.8447C3.84067 11.2693 3.98333 11.582 4.21933 11.7893C4.2 11.856 4.19467 11.928 4.20333 12.0033C4.21184 12.1011 4.24426 12.1953 4.29774 12.2776C4.35121 12.3599 4.42411 12.4278 4.51 12.4753C4.67267 12.5667 4.88 12.6 5.10133 12.6C5.46667 12.6 5.78733 12.4033 6.03133 12.1407L6.06667 12.1027V9.81667Z" stroke="black" stroke-width="0.266667"/>
<path d="M6.46466 10.8653C6.46933 10.822 6.47133 10.7787 6.47133 10.7333C6.47133 10.052 5.838 9.6 5.138 9.6C4.44 9.6 3.87266 10.0333 3.93933 10.8333C3.97666 11.2787 4.136 11.5713 4.38266 11.748C4.34155 11.8208 4.32562 11.9052 4.33733 11.988C4.37866 12.34 4.67933 12.4667 5.10133 12.4667C5.84133 12.4667 6.428 11.53 6.46466 10.8653Z" fill="#F9C9B6"/>
<path d="M5.43333 10.1667C5.16667 10.0447 4.58 9.98 4.36666 10.7" stroke="black" stroke-width="0.266667"/>
<path d="M4.73333 10.2C4.878 10.322 5.15333 10.7 5.1 11.2333" stroke="black" stroke-width="0.266667"/>
<path d="M9.98467 21.6387L10.0993 21.728L10.1787 21.606V21.6047L10.182 21.6007L10.1847 21.5973C10.2018 21.5707 10.2196 21.5444 10.238 21.5187C10.4679 21.1863 10.7243 20.873 11.0047 20.582C11.2493 20.33 11.5267 20.0887 11.8133 19.92C12.1007 19.7513 12.3853 19.664 12.6487 19.7C15.478 20.08 17.56 21.3333 18.9113 23.2H0.691334C1.778 21.244 3.324 19.9987 5.82933 19.4273C5.936 19.4033 6.08133 19.4107 6.26267 19.4527C6.44267 19.4947 6.64733 19.568 6.86867 19.6653C7.31 19.8587 7.80333 20.1427 8.26667 20.436C8.84425 20.8033 9.40567 21.1955 9.94933 21.6113L9.976 21.6313L9.98267 21.6367L9.984 21.638H9.98467V21.6387Z" fill="#FFEDEF"/>
<path d="M9.98467 21.6387L10.0667 21.5333M9.98467 21.6387L10.0993 21.728L10.1787 21.606V21.6047L10.182 21.6007L10.1847 21.5973C10.2018 21.5707 10.2196 21.5444 10.238 21.5187C10.4679 21.1863 10.7243 20.873 11.0047 20.582C11.2493 20.33 11.5267 20.0887 11.8133 19.92C12.1007 19.7513 12.3853 19.664 12.6487 19.7C15.478 20.08 17.56 21.3333 18.9113 23.2H0.691334C1.778 21.244 3.324 19.9987 5.82933 19.4273C5.936 19.4033 6.08133 19.4107 6.26267 19.4527C6.44267 19.4947 6.64733 19.568 6.86867 19.6653C7.31 19.8587 7.80333 20.1427 8.26667 20.436C8.84425 20.8033 9.40567 21.1955 9.94933 21.6113L9.976 21.6313L9.98267 21.6367L9.984 21.638H9.98467V21.6387Z" stroke="black" stroke-width="0.266667"/>
<path d="M5.04067 19.6053L5.38533 18.3233C5.39867 18.2713 5.46667 18.2567 5.50267 18.2967C6.49333 19.38 7.744 19.3387 8.16 19.2887C8.216 19.282 8.26 19.3433 8.23333 19.394L7.356 21.0573C7.34267 21.0827 7.31467 21.0973 7.28667 21.0907C7.02333 21.036 5.712 20.7153 5.04867 19.6573C5.04387 19.6497 5.04069 19.6411 5.03932 19.6322C5.03794 19.6232 5.0384 19.6141 5.04067 19.6053ZM13.7467 19.5987L12.974 18.3C12.9473 18.256 12.8827 18.2567 12.8547 18.3C12.4727 18.8887 11.8127 19.16 11.582 19.24C11.5407 19.2547 11.522 19.304 11.544 19.342L12.444 20.8627C12.4573 20.8853 12.4833 20.898 12.5087 20.8907C12.6507 20.85 13.1393 20.646 13.7447 19.668C13.7511 19.6576 13.7546 19.6457 13.7547 19.6334C13.7548 19.6212 13.7516 19.6092 13.7453 19.5987H13.7467Z" fill="#FFEDEF" stroke="black" stroke-width="0.266667"/>
<path d="M5.04067 19.6053L5.38533 18.3233C5.39867 18.2713 5.46667 18.2567 5.50267 18.2967C6.49333 19.38 7.744 19.3387 8.16 19.2887C8.216 19.282 8.26 19.3433 8.23333 19.394L7.356 21.0573C7.34267 21.0827 7.31467 21.0973 7.28667 21.0907C7.02333 21.036 5.712 20.7153 5.04867 19.6573C5.04387 19.6497 5.04069 19.6411 5.03932 19.6322C5.03794 19.6232 5.0384 19.6141 5.04067 19.6053ZM13.7467 19.5987L12.974 18.3C12.9473 18.256 12.8827 18.2567 12.8547 18.3C12.4727 18.8887 11.8127 19.16 11.582 19.24C11.5407 19.2547 11.522 19.304 11.544 19.342L12.444 20.8627C12.4573 20.8853 12.4833 20.898 12.5087 20.8907C12.6507 20.85 13.1393 20.646 13.7447 19.668C13.7511 19.6576 13.7546 19.6457 13.7547 19.6334C13.7548 19.6212 13.7516 19.6092 13.7453 19.5987H13.7467Z" fill="white" fill-opacity="0.75" stroke="black" stroke-width="0.266667"/>
<path d="M8.83333 20.7667L8.23333 19.3333L7.76667 20.3333L8.83333 20.7667ZM10.9333 20.7L11.5333 19.2667L12 20.2667L10.9333 20.7ZM6.23333 18.0667L5.43333 18.2667L6.1 18.7L6.23333 18.0667ZM12.2 18.0667L12.9333 18.2667L12.4667 18.7L12.2 18.0667Z" fill="black" stroke="black" stroke-width="0.266667" stroke-linejoin="round"/>
</svg>
